<?xml version="1.0" standalone="no"?>
<!DOCTYPE svg PUBLIC "-//W3C//DTD SVG 20010904//EN"
 "http://www.w3.org/TR/2001/REC-SVG-20010904/DTD/svg10.dtd">
<svg version="1.0" xmlns="http://www.w3.org/2000/svg"
 width="400.000000pt" height="400.000000pt" viewBox="0 0 400.000000 400.000000"
 preserveAspectRatio="xMidYMid meet">
<metadata>
Created by potrace 1.14, written by Peter Selinger 2001-2017
</metadata>
<g transform="translate(0.000000,400.000000) scale(0.100000,-0.100000)"
fill="#000000" stroke="none">
<path d="M1919 3231 c-50 -24 -721 -696 -742 -743 -10 -20 -17 -43 -17 -52 0
-14 -26 -16 -230 -16 -296 0 -289 3 -450 -181 -36 -40 -89 -101 -119 -134 -30
-33 -68 -76 -85 -95 -17 -20 -69 -78 -116 -130 -162 -181 -160 -178 -160 -214
0 -55 35 -76 126 -76 52 0 74 -4 75 -12 0 -7 1 -176 2 -375 2 -348 3 -363 23
-390 48 -66 -93 -61 1784 -60 l1699 2 28 21 c60 44 60 49 61 444 0 199 1 363
4 365 2 2 36 5 76 6 55 2 79 7 98 21 34 27 32 76 -3 120 -28 33 -201 229 -258
292 -18 20 -241 270 -271 305 -16 18 -51 45 -79 60 -49 26 -53 26 -288 29
l-237 3 -11 47 c-11 43 -38 73 -358 395 -205 206 -360 355 -381 364 -51 23
-128 25 -171 4z"/>
</g>
</svg>
